<?xml version="1.0" encoding="UTF-8"?>
<svg version="1.1" xmlns="http://www.w3.org/2000/svg" width="629" height="125">
<path d="M0 0 C0.66 0.33 1.32 0.66 2 1 C2 1.66 2 2.32 2 3 C2.928125 3.37125 2.928125 3.37125 3.875 3.75 C6.41465893 5.24391702 7.09909878 6.21539622 8 9 C7.9375 11 7.9375 11 7 13 C2.66666667 17 2.66666667 17 0 17 C0 18.65 0 20.3 0 22 C0.86882813 21.89300781 1.73765625 21.78601563 2.6328125 21.67578125 C14.07908612 20.48506151 14.07908612 20.48506151 19 24 C18.71465656 32.84564651 15.77131496 39.40409504 9.3125 45.5625 C7 47 7 47 4 48 C4 48.66 4 49.32 4 50 C6.64 50 9.28 50 12 50 C12.33 50.99 12.66 51.98 13 53 C12.05119412 54.76674198 11.09052283 56.53009818 10.02734375 58.23046875 C8.85817914 60.07369467 8.85817914 60.07369467 8.25 62.6875 C6.23034193 66.42386744 2.8123092 67.43219622 -1 69 C-1.70253906 69.30164063 -2.40507813 69.60328125 -3.12890625 69.9140625 C-6.86815711 71.43246797 -9.89547112 72.38479958 -14 72 C-14.66 70.68 -15.32 69.36 -16 68 C-15.05125 67.401875 -14.1025 66.80375 -13.125 66.1875 C-9.86035803 64.18437474 -9.86035803 64.18437474 -8 61 C-11.87406939 62.90305163 -15.60354669 64.74840463 -19.25 67.0625 C-25.88392195 70.927216 -34.44630264 72.28738704 -42 73 C-42.7528125 73.07605469 -43.505625 73.15210937 -44.28125 73.23046875 C-46.63101505 73.37160724 -48.68249216 73.42055162 -51 73 C-53.5625 70.5 -53.5625 70.5 -55 68 C-51.77640291 63.60418578 -48.24000493 63.19279726 -43.14453125 62.39453125 C-41.02516476 62.21433013 -41.02516476 62.21433013 -40 61 C-36.75458286 60.58392088 -33.51128045 60.23172247 -30.25390625 59.92578125 C-22.61514289 59.08962719 -16.49351031 56.02597639 -10 52 C-9.505 51.01 -9.505 51.01 -9 50 C-10.65 50.66 -12.3 51.32 -14 52 C-13.67 50.02 -13.34 48.04 -13 46 C-17.77841255 47.12700469 -17.77841255 47.12700469 -22 49.5 C-24.75128195 51.56346146 -27.71778928 52.07107244 -31 53 C-31.33 53.66 -31.66 54.32 -32 55 C-33.98 55 -35.96 55 -38 55 C-39.96171141 51.45023649 -41.34576488 48.01205691 -42.4375 44.125 C-43.92778297 38.9519235 -45.60491568 33.2617019 -49.61328125 29.4765625 C-51 28 -51 28 -51.1875 24.8125 C-51.125625 23.884375 -51.06375 22.95625 -51 22 C-48 21 -48 21 -45.61328125 22.15234375 C-42.86276422 24.09702919 -40.56064419 26.17361356 -38.1875 28.5625 C-37.39730469 29.34753906 -36.60710938 30.13257812 -35.79296875 30.94140625 C-34 33 -34 33 -34 35 C-33.0409375 35.2784375 -33.0409375 35.2784375 -32.0625 35.5625 C-30 37 -30 37 -29.25 40.625 C-29.12625 42.295625 -29.12625 42.295625 -29 44 C-27.02 43.505 -27.02 43.505 -25 43 C-25.62759865 40.07120629 -26.58622659 37.63904371 -28 35 C-24.18510326 33.53273202 -21.70988378 34.56663581 -18 36 C-16.68 34.02 -15.36 32.04 -14 30 C-14.763125 30.515625 -15.52625 31.03125 -16.3125 31.5625 C-17.199375 32.036875 -18.08625 32.51125 -19 33 C-19.99 32.67 -20.98 32.34 -22 32 C-21.67 30.02 -21.34 28.04 -21 26 C-21.99 25.67 -22.98 25.34 -24 25 C-24.33 24.01 -24.66 23.02 -25 22 C-23.31457302 19.95888226 -22.40131649 19.08068426 -19.765625 18.55078125 C-18.93546875 18.47214844 -18.1053125 18.39351562 -17.25 18.3125 C-11.99147698 17.38497626 -9.69335916 15.39833127 -6.46875 11.23828125 C-4.30708876 7.94404749 -2.63513594 4.58472109 -1 1 C-0.67 0.67 -0.34 0.34 0 0 Z M-7.625 32.1875 C-8.15351562 32.67025391 -8.68203125 33.15300781 -9.2265625 33.65039062 C-10.95173061 35.2586758 -10.95173061 35.2586758 -13 38 C-12.988213 40.79991562 -12.988213 40.79991562 -12 43 C-11.01 42.34 -10.02 41.68 -9 41 C-9 39.68 -9 38.36 -9 37 C-6.03 37.495 -6.03 37.495 -3 38 C-3 39.65 -3 41.3 -3 43 C-1.06999437 42.92141603 -1.06999437 42.92141603 1 42 C2.58150494 39.50509571 2.58150494 39.50509571 3.75 36.5 C4.17796875 35.4996875 4.6059375 34.499375 5.046875 33.46875 C6.06002762 31.28557712 6.06002762 31.28557712 6 30 C4.02 30 2.04 30 0 30 C-0.33 29.01 -0.66 28.02 -1 27 C-3.39198778 27 -5.91131964 30.53532549 -7.625 32.1875 Z M-4 58 C-5.32 58.33 -6.64 58.66 -8 59 C-8 59.66 -8 60.32 -8 61 C-6.35 60.67 -4.7 60.34 -3 60 C-3.33 59.34 -3.66 58.68 -4 58 Z " fill="#000000" transform="translate(607,3)"/>
<path d="M0 0 C2.375 0 2.375 0 5 1 C7 3.6875 7 3.6875 9 7 C9.92957176 7.96602555 10.86713399 8.92442536 11.8125 9.875 C14.34778445 13.49683493 14.36989653 14.80150747 13.6875 18.97265625 C12.80941947 21.56199598 11.42433604 23.66991411 10 26 C6.76847322 33.07255862 5.35282183 40.0364822 4.4921875 47.73828125 C4 51 4 51 3.00219727 53.75 C1.89118472 57.3528743 1.63614893 60.49798596 1.47265625 64.26171875 C1.40198814 65.64129121 1.33101572 67.0208481 1.25976562 68.40039062 C1.15845932 70.55296481 1.06173682 72.70559853 0.97094727 74.85864258 C0.87947186 76.95212256 0.77079524 79.04417685 0.66015625 81.13671875 C0.60480713 82.38155029 0.54945801 83.62638184 0.49243164 84.90893555 C0 88 0 88 -1.41625977 89.92895508 C-3 91 -3 91 -5 91 C-6 90 -7 89 -8 88 C-8.99 87.67 -9.98 87.34 -11 87 C-11.16628906 87.82564453 -11.16628906 87.82564453 -11.3359375 88.66796875 C-13.65679137 96.81826147 -18.66909084 103.53803915 -25 109 C-25.70125 109.66 -26.4025 110.32 -27.125 111 C-29 112 -29 112 -31.375 111.9375 C-35.54388694 110.44861181 -38.88024429 108.11975571 -42 105 C-41.91534527 101.10588241 -41.50989145 99.4961106 -38.6875 96.75 C-35.31587961 94.55452626 -32.84821758 93.16964352 -28.875 92.375 C-24.25509909 91.1529617 -21.07314923 88.04722016 -17.52734375 84.97265625 C-15 83 -15 83 -11.7734375 81.94140625 C-8.83084539 80.31640704 -8.83084539 80.31640704 -8.3527832 77.72192383 C-7.9917664 74.76634102 -7.80597748 71.85010108 -7.6875 68.875 C-7.56943455 66.85138354 -7.44849993 64.82793173 -7.32421875 62.8046875 C-7.28385498 61.90733887 -7.24349121 61.00999023 -7.2019043 60.08544922 C-7 58 -7 58 -6 57 C-5.80644693 54.83985688 -5.67558615 52.67405315 -5.5703125 50.5078125 C-5.49651171 49.14841474 -5.42227791 47.78904044 -5.34765625 46.4296875 C-5.2353355 44.29316207 -5.12648962 42.15664154 -5.02587891 40.01953125 C-4.64878697 32.17601894 -4.05865347 24.78103779 -1.64111328 17.2421875 C-0.72067508 14.02310737 -0.7110143 11.32333555 -1 8 C-1.495 7.505 -1.495 7.505 -2 7 C-2.1875 4.5625 -2.1875 4.5625 -2 2 C-1.34 1.34 -0.68 0.68 0 0 Z " fill="#000000" transform="translate(149,8)"/>
<path d="M0 0 C4.28602114 0.16484697 6.46146021 0.55720062 9.8125 3.3125 C13.99852231 8.45532741 14.47340099 12.4481303 14 19 C13.2272599 25.59194613 12.1387778 31.71302815 10 38 C9.62468554 40.32694964 9.28082798 42.65976685 9 45 C13.49696211 43.68089111 17.24800267 42.57966461 21 39.6875 C24.43802481 37.75361104 25.17479643 37.92581135 28.875 38.75 C30.25715113 39.14229372 31.63517521 39.55112429 33 40 C30.78268192 46.52876991 30.78268192 46.52876991 27.359375 48.58984375 C24.38539505 49.83822371 21.44273896 50.81107579 18.34082031 51.68530273 C11.22855443 53.47613151 11.22855443 53.47613151 6.25 58.4375 C5.8375 59.613125 5.425 60.78875 5 62 C4.505 62.94875 4.01 63.8975 3.5 64.875 C2.65306224 66.63945367 1.83172826 68.41848451 1.1015625 70.234375 C-0.90775599 75.15318665 -2.52291343 77.90047853 -7 81 C-7.495 81.70125 -7.99 82.4025 -8.5 83.125 C-10.90913834 86.13642292 -13.53147436 86.80453072 -17.2890625 87.3046875 C-18.89401241 87.47282511 -20.50092616 87.62341951 -22.109375 87.75390625 C-24.00903861 87.80573168 -24.00903861 87.80573168 -25 89 C-27.01964199 89.07244053 -29.04167124 89.08377188 -31.0625 89.0625 C-32.16722656 89.05347656 -33.27195312 89.04445313 -34.41015625 89.03515625 C-35.26480469 89.02355469 -36.11945313 89.01195313 -37 89 C-37.33 88.01 -37.66 87.02 -38 86 C-36.576875 85.4121875 -36.576875 85.4121875 -35.125 84.8125 C-31.13620215 83.10996433 -27.28769391 81.16190055 -23.4296875 79.18359375 C-21 78 -21 78 -18.421875 77.1484375 C-15.3392715 75.68668681 -14.23640975 74.02211256 -12.375 71.1875 C-11.80523437 70.33542969 -11.23546875 69.48335938 -10.6484375 68.60546875 C-9.05868328 66.09275296 -7.51554761 63.55806067 -6 61 C-11.34126798 61.21778626 -11.34126798 61.21778626 -15.9609375 63.48046875 C-18.33257749 65.24784031 -19.97174636 65.56586861 -22.875 66 C-27.05960597 66.73629431 -30.24854291 67.95375068 -34 70 C-35.99620166 70.67795528 -37.99538701 71.34733531 -40 72 C-40.495 72.495 -40.495 72.495 -41 73 C-45.10166159 73.39439054 -47.3016498 73.45004791 -50.8125 71.1875 C-53 69 -53 69 -55 66 C-54.64111965 63.03923709 -54.15341979 62.15341979 -52 60 C-49.86328125 59.69140625 -49.86328125 59.69140625 -47.3125 59.5625 C-42.67408824 59.18929446 -39.23263403 57.99652549 -35 56 C-27.58214783 53.57493294 -19.8843278 52.23713614 -12.125 51.5 C-7.27946345 51.08690814 -7.27946345 51.08690814 -3 49 C-0.88489157 43.03613114 -0.73507283 36.87942808 -0.83984375 30.625 C-0.84504532 29.77446045 -0.85024689 28.9239209 -0.85560608 28.04760742 C-0.87324175 25.3648876 -0.90443251 22.68257028 -0.9375 20 C-0.9651152 17.28890761 -0.98977302 14.57786662 -1.00868225 11.86669922 C-1.02095237 10.18728804 -1.03856864 8.50790588 -1.06199646 6.82861328 C-1.07887716 4.88570562 -1.04474189 2.94246578 -1 1 C-0.67 0.67 -0.34 0.34 0 0 Z " fill="#000000" transform="translate(475,14)"/>
<path d="M0 0 C1 3 1 3 0 6 C-0.66 6 -1.32 6 -2 6 C-2.07347656 6.90685547 -2.07347656 6.90685547 -2.1484375 7.83203125 C-3 10 -3 10 -5.4765625 11.44921875 C-12.17560112 14.0839523 -17.77415794 16 -25 16 C-25 15.01 -25 14.02 -25 13 C-27.77381114 13.42281878 -30.54308506 13.86249806 -33.3125 14.3125 C-34.09818359 14.43044922 -34.88386719 14.54839844 -35.69335938 14.66992188 C-36.45068359 14.79560547 -37.20800781 14.92128906 -37.98828125 15.05078125 C-38.68477783 15.16075439 -39.38127441 15.27072754 -40.09887695 15.3840332 C-42.38553214 16.12491301 -43.36270364 17.28358753 -45 19 C-45.66 19 -46.32 19 -47 19 C-47 19.66 -47 20.32 -47 21 C-46.09507813 21.03867187 -46.09507813 21.03867187 -45.171875 21.078125 C-44.37265625 21.13484375 -43.5734375 21.1915625 -42.75 21.25 C-41.96109375 21.29640625 -41.1721875 21.3428125 -40.359375 21.390625 C-37.16593382 22.21542107 -35.96690219 23.36575599 -34 26 C-33.390625 29.015625 -33.390625 29.015625 -33.25 32.25 C-33.19328125 33.32765625 -33.1365625 34.4053125 -33.078125 35.515625 C-33.05234375 36.33546875 -33.0265625 37.1553125 -33 38 C-32.51789062 37.566875 -32.03578125 37.13375 -31.5390625 36.6875 C-30.90742187 36.130625 -30.27578125 35.57375 -29.625 35 C-28.99851563 34.443125 -28.37203125 33.88625 -27.7265625 33.3125 C-26 32 -26 32 -24 32 C-23.690625 31.071875 -23.690625 31.071875 -23.375 30.125 C-21.45224112 27.15346355 -19.33405473 26.86975341 -16 26 C-11.93410964 29.62633464 -9.67430431 32.79105325 -8 38 C-8.24526696 41.59724873 -8.96579755 42.94869632 -11 46 C-11.80695313 46.45503906 -12.61390625 46.91007812 -13.4453125 47.37890625 C-16.44204358 49.28050166 -17.31017288 50.78469743 -18.875 53.9375 C-19.37386719 54.90171875 -19.87273437 55.8659375 -20.38671875 56.859375 C-21.18529297 58.41398437 -21.18529297 58.41398437 -22 60 C-23.21009421 62.23957735 -24.43899615 64.46910579 -25.6875 66.6875 C-26.24824219 67.70199219 -26.80898437 68.71648437 -27.38671875 69.76171875 C-27.91910156 70.50035156 -28.45148438 71.23898438 -29 72 C-29.99 72 -30.98 72 -32 72 C-32.495 73.485 -32.495 73.485 -33 75 C-35.0625 75.6875 -35.0625 75.6875 -37 76 C-36.505 76.515625 -36.01 77.03125 -35.5 77.5625 C-33.42508199 80.93424177 -33.43504078 83.11590535 -34 87 C-36.25 88.8125 -36.25 88.8125 -39 90 C-39.66 90.391875 -40.32 90.78375 -41 91.1875 C-43.43548113 92.17691421 -45.39577635 92.14467909 -48 92 C-47 90 -46 88 -45 86 C-49.95 86 -54.9 86 -60 86 C-59.67 82.37 -59.34 78.74 -59 75 C-61.97 75.495 -61.97 75.495 -65 76 C-65.99 74.35 -66.98 72.7 -68 71 C-68.474375 71.495 -68.94875 71.99 -69.4375 72.5 C-73.20358351 74.70453669 -76.73459379 74.24608113 -81 74 C-79.90087633 78.77360074 -79.90087633 78.77360074 -77.44921875 82.91796875 C-75.6688912 85.47569 -75.59705322 86.97438117 -75.625 90.0625 C-75.61726563 90.91972656 -75.60953125 91.77695313 -75.6015625 92.66015625 C-76.07718007 95.45324376 -76.7512084 96.32401381 -79 98 C-81.875 98.6875 -81.875 98.6875 -85 98 C-87.73203432 95.7588781 -88.92313093 93.33736578 -90 90 C-90.49021406 84.61321599 -90.32623052 79.39367794 -90 74 C-89.94328125 73.01 -89.8865625 72.02 -89.828125 71 C-89.625 68.5625 -89.625 68.5625 -89 65 C-88.01 64.505 -88.01 64.505 -87 64 C-86.67 64.99 -86.34 65.98 -86 67 C-82.76189786 68.61905107 -79.49982337 68.57034159 -76 68 C-73.21432294 66.64227505 -72.11617844 65.4336052 -70 63 C-69.48907929 59.87061063 -69.42334608 58.02390125 -70.9921875 55.23828125 C-72.34506179 52.23364185 -72.42826199 49.52896688 -72.625 46.25 C-72.69976562 45.07953125 -72.77453125 43.9090625 -72.8515625 42.703125 C-72.92503906 41.36507812 -72.92503906 41.36507812 -73 40 C-71.68 39.34 -70.36 38.68 -69 38 C-63.52842265 41.43927719 -61.55416015 46.3047663 -59 52 C-57.35 52 -55.7 52 -54 52 C-50.43128977 46.64693465 -49.59138127 42.13853708 -49.5625 35.75 C-49.54799805 34.70392578 -49.54799805 34.70392578 -49.53320312 33.63671875 C-49.6011257 29.48944623 -50.07643379 27.00886921 -53 24 C-56.29075996 24.37904208 -56.29075996 24.37904208 -59 26 C-71.19268269 27.23693882 -71.19268269 27.23693882 -76.3125 23.5 C-77.199375 22.675 -78.08625 21.85 -79 21 C-78.68359375 19.1015625 -78.68359375 19.1015625 -78 17 C-73.20804663 14.34913218 -68.40932428 13.35447578 -63.0390625 12.4296875 C-61.01494639 12.19698174 -61.01494639 12.19698174 -60 11 C-57.92526252 10.59853244 -55.83942897 10.25372524 -53.75 9.9375 C-52.61046875 9.76089844 -51.4709375 9.58429687 -50.296875 9.40234375 C-47.48109738 9.05871212 -44.83026817 8.92019921 -42 9 C-42 8.34 -42 7.68 -42 7 C-41.09121094 6.90203125 -40.18242188 6.8040625 -39.24609375 6.703125 C-31.02588863 5.72513137 -23.29526735 4.19136357 -15.33984375 1.90234375 C-10.14678934 0.499308 -5.37614303 -0.12800341 0 0 Z M-36 46 C-37.58231219 48.94413826 -38.72182266 51.90691582 -39.86328125 55.046875 C-40.83292886 57.56595952 -41.78602875 59.41494841 -43.375 61.5625 C-43.91125 62.366875 -44.4475 63.17125 -45 64 C-44.67 64.99 -44.34 65.98 -44 67 C-41.58414426 66.96906827 -41.58414426 66.96906827 -39 66 C-37.31668061 63.13343033 -37.31668061 63.13343033 -36 60 C-35.46375 59.484375 -34.9275 58.96875 -34.375 58.4375 C-32.4935748 56.47055547 -32.35731038 54.64409683 -32 52 C-31.01 51.67 -30.02 51.34 -29 51 C-27.17394457 48.67881567 -27.17394457 48.67881567 -26 46 C-26.33 45.01 -26.66 44.02 -27 43 C-30.56270575 43 -33.24825862 43.80218059 -36 46 Z M-56 61 C-56 61.99 -56 62.98 -56 64 C-55.34 64 -54.68 64 -54 64 C-54 63.01 -54 62.02 -54 61 C-54.66 61 -55.32 61 -56 61 Z M-50 72 C-50.33 73.65 -50.66 75.3 -51 77 C-47.7 77 -44.4 77 -41 77 C-42.66369252 74.39859044 -42.66369252 74.39859044 -45 72 C-47.66928121 71.58129447 -47.66928121 71.58129447 -50 72 Z " fill="#000000" transform="translate(93,15)"/>
<path d="M0 0 C0.24974334 11.43269522 -0.15549007 20.43016015 -5 31 C-4.09507812 30.85691406 -4.09507812 30.85691406 -3.171875 30.7109375 C-1.97304688 30.54464844 -1.97304688 30.54464844 -0.75 30.375 C0.03890625 30.25898437 0.8278125 30.14296875 1.640625 30.0234375 C4.32152459 29.99680605 5.72694089 30.63407916 8 32 C8 34.31 8 36.62 8 39 C6.64068359 39.05607422 6.64068359 39.05607422 5.25390625 39.11328125 C-1.99868272 39.50469081 -8.27672202 40.23916458 -15 43 C-16.4540625 43.495 -16.4540625 43.495 -17.9375 44 C-20.32881256 44.94430511 -20.32881256 44.94430511 -22 48 C-18.66737083 47.61912809 -17.13140489 47.10840904 -14.5 44.9375 C-12 43 -12 43 -9.3125 42.625 C-7 43 -7 43 -5 45 C-4.44674659 48.96498278 -4.97785444 51.25880565 -7.0625 54.5625 C-9.19642404 58.34849426 -9.10087146 59.03686275 -8 63 C-8.66 63.99 -9.32 64.98 -10 66 C-10.70812814 68.32108669 -11.38024152 70.65377147 -12 73 C-11.01 73.495 -11.01 73.495 -10 74 C-10.54723683 77.37462715 -11.0549 79.08235 -13 82 C-13.99 82.33 -14.98 82.66 -16 83 C-16.020625 84.299375 -16.04125 85.59875 -16.0625 86.9375 C-16.07410156 87.66839844 -16.08570313 88.39929688 -16.09765625 89.15234375 C-16.20561184 91.01732141 -16.20561184 91.01732141 -15 92 C-14.87485072 93.97619447 -14.8242724 95.95738173 -14.8125 97.9375 C-14.79832031 99.01902344 -14.78414063 100.10054688 -14.76953125 101.21484375 C-15 104 -15 104 -17 106 C-19.625 106.125 -19.625 106.125 -22 106 C-22 105.34 -22 104.68 -22 104 C-22.639375 103.731875 -23.27875 103.46375 -23.9375 103.1875 C-26 102 -26 102 -27 99 C-27.598125 99.495 -28.19625 99.99 -28.8125 100.5 C-31 102 -31 102 -34 102 C-34.12375 102.56332031 -34.2475 103.12664062 -34.375 103.70703125 C-35.04485014 106.16454395 -35.95596862 108.36529784 -37 110.6875 C-37.350625 111.47511719 -37.70125 112.26273437 -38.0625 113.07421875 C-39 115 -39 115 -40 116 C-46.2781597 116.59227922 -46.2781597 116.59227922 -49.4375 114 C-49.953125 113.34 -50.46875 112.68 -51 112 C-49.6066258 107.56653665 -47.35894562 105.04648557 -44 102 C-43.23945313 101.27039063 -42.47890625 100.54078125 -41.6953125 99.7890625 C-36.94942178 95.33167578 -33.04899177 92.31663515 -27 90 C-26.505 88.515 -26.505 88.515 -26 87 C-28.31 87 -30.62 87 -33 87 C-33.625 85.1875 -33.625 85.1875 -34 83 C-31.9927092 79.9890638 -31.16115776 79.36983503 -28 78 C-28 76.68 -28 75.36 -28 74 C-29.32 73.67 -30.64 73.34 -32 73 C-31.42558597 69.12270528 -29.70745361 66.78480942 -27 64 C-25.68 64 -24.36 64 -23 64 C-22.773125 63.443125 -22.54625 62.88625 -22.3125 62.3125 C-20.64103234 59.36753316 -18.44723648 57.31843456 -16 55 C-16.33 54.34 -16.66 53.68 -17 53 C-17.40992188 53.49371094 -17.81984375 53.98742188 -18.2421875 54.49609375 C-18.78101563 55.13675781 -19.31984375 55.77742188 -19.875 56.4375 C-20.40867187 57.07558594 -20.94234375 57.71367188 -21.4921875 58.37109375 C-23 60 -23 60 -25 61 C-26.99960012 61.039992 -29.00047242 61.04346799 -31 61 C-31.495 58.525 -31.495 58.525 -32 56 C-35.46165118 57.88815744 -35.46165118 57.88815744 -38.26953125 60.58203125 C-40.87693979 62.71857595 -43.05958395 62.39776029 -46.375 62.375 C-48.05722656 62.38660156 -48.05722656 62.38660156 -49.7734375 62.3984375 C-53.25198023 61.9688838 -55.16527444 61.00660349 -58 59 C-57.125 54.125 -57.125 54.125 -56 53 C-53.14471393 52.599617 -50.30263513 52.2481773 -47.4375 51.9375 C-46.63119141 51.84662109 -45.82488281 51.75574219 -44.99414062 51.66210938 C-42.99652623 51.43752551 -40.9983144 51.21826764 -39 51 C-39 50.34 -39 49.68 -39 49 C-37.824375 48.566875 -37.824375 48.566875 -36.625 48.125 C-33.90328368 47.15087746 -33.90328368 47.15087746 -32 45 C-29.68234271 44.28072705 -27.34904126 43.6090107 -25 43 C-25.495 40.03 -25.495 40.03 -26 37 C-26.63808594 37.01160156 -27.27617187 37.02320313 -27.93359375 37.03515625 C-28.75988281 37.04417969 -29.58617187 37.05320313 -30.4375 37.0625 C-31.67306641 37.07990234 -31.67306641 37.07990234 -32.93359375 37.09765625 C-35 37 -35 37 -36 36 C-36.14115161 33.32941149 -36.04247107 30.67567762 -36 28 C-33.36 28 -30.72 28 -28 28 C-28.0721875 27.25234375 -28.144375 26.5046875 -28.21875 25.734375 C-28.3115625 24.74953125 -28.404375 23.7646875 -28.5 22.75 C-28.5928125 21.77546875 -28.685625 20.8009375 -28.78125 19.796875 C-28.95800168 17.53697847 -29 15.26679807 -29 13 C-27.68 12.34 -26.36 11.68 -25 11 C-23.02 12.32 -21.04 13.64 -19 15 C-19.58803797 18.02419525 -20.22678118 21.01758453 -21 24 C-17.04 23.505 -17.04 23.505 -13 23 C-13 22.34 -13 21.68 -13 21 C-12.34 21 -11.68 21 -11 21 C-11.66 24.96 -12.32 28.92 -13 33 C-12.34 33 -11.68 33 -11 33 C-9.14201443 19.36326557 -9.14201443 19.36326557 -11 6 C-10.21772067 3.08423158 -9.61564072 1.46703779 -7.1875 -0.375 C-4.47808989 -1.14911717 -2.71368913 -0.61899025 0 0 Z M-15 33 C-15.99 33.495 -15.99 33.495 -17 34 C-17 34.66 -17 35.32 -17 36 C-15.68 35.67 -14.36 35.34 -13 35 C-13.66 34.34 -14.32 33.68 -15 33 Z M-25 92 C-25 92.99 -25 93.98 -25 95 C-24.34 95 -23.68 95 -23 95 C-23 94.01 -23 93.02 -23 92 C-23.66 92 -24.32 92 -25 92 Z " fill="#000000" transform="translate(386,6)"/>
<path d="M0 0 C2.79835298 1.44431121 4.12552291 2.34674783 5.9375 5 C7.18279127 12.03589569 5.42136418 17.00296662 1.9375 23 C1.24709426 24.65697379 0.56778587 26.31923769 -0.0625 28 C1.9175 29.65 3.8975 31.3 5.9375 33 C5.25 35.875 5.25 35.875 3.9375 39 C0.59981761 40.98456791 -2.22902105 41.21905594 -6.0625 41 C-7.86535355 46.32002766 -9.47198164 51.68758041 -11.0625 57.07421875 C-12.0625 60 -12.0625 60 -14.0625 63 C-12.804375 62.938125 -11.54625 62.87625 -10.25 62.8125 C-6.34981426 62.83317236 -6.34981426 62.83317236 -4.125 64.125 C-2.67658488 66.68102669 -2.38434417 69.10340247 -2.0625 72 C-4.28077539 74.37238715 -6.08029616 75.85827752 -9.35009766 76.33007812 C-12.03454189 76.39318165 -14.69167444 76.34860984 -17.375 76.25 C-18.30634766 76.23195313 -19.23769531 76.21390625 -20.19726562 76.1953125 C-22.48674197 76.14834888 -24.77408184 76.08269475 -27.0625 76 C-29.17167681 72.15286149 -29.53600812 69.4194091 -29.0625 65 C-28.45148438 64.40316406 -27.84046875 63.80632812 -27.2109375 63.19140625 C-24.55716989 60.48456329 -23.61888544 57.98167532 -22.3125 54.4375 C-21.67054688 52.73400391 -21.67054688 52.73400391 -21.015625 50.99609375 C-19.91092381 48.04753661 -19.91092381 48.04753661 -20.0625 45 C-21.3825 44.34 -22.7025 43.68 -24.0625 43 C-23.45921875 42.58492187 -22.8559375 42.16984375 -22.234375 41.7421875 C-14.72541136 35.95301876 -12.9067025 30.03225296 -11.0625 21 C-10.58935478 18.71379832 -10.11117401 16.42941126 -9.61450195 14.14819336 C-9.29513707 12.6650979 -8.99579994 11.17750637 -8.71948242 9.68579102 C-7.95564052 6.04777389 -7.22258498 4.15958471 -4.5625 1.5078125 C-2.0625 0 -2.0625 0 0 0 Z " fill="#000000" transform="translate(186.0625,20)"/>
<path d="M0 0 C1.06731372 3.20194116 1.5581838 4.74126981 1 8 C-1.19874332 10.69243204 -3.6702503 12.90042102 -6.234375 15.24609375 C-13.70852562 22.68857424 -18.10242039 32.88609957 -22.65234375 42.296875 C-24 45 -24 45 -25 46 C-21.33939179 45.41463247 -19.45464836 43.916761 -16.75 41.4375 C-16.04359375 40.79683594 -15.3371875 40.15617187 -14.609375 39.49609375 C-13.81273437 38.75552734 -13.81273437 38.75552734 -13 38 C-9.58720926 40.40698859 -8.14249109 41.90607361 -7 46 C-6.46632124 51.33678756 -6.46632124 51.33678756 -8.20703125 53.5 C-14.28897986 58.58816616 -22.27533743 61.68973611 -29.4921875 64.82421875 C-32.04575085 65.96650669 -32.04575085 65.96650669 -34.4921875 67.515625 C-37.81150404 69.48032949 -41.28117231 70.70563891 -44.890625 72.03515625 C-47.16601697 72.80923819 -47.16601697 72.80923819 -48 75 C-53.25773553 78.64822466 -56.6045121 79.82522425 -63 79 C-65.4375 77.25 -65.4375 77.25 -68 75 C-70.94179491 73.52411645 -73.95505293 72.24716786 -77 71 C-76.67 69.68 -76.34 68.36 -76 67 C-74.82244141 66.83564453 -74.82244141 66.83564453 -73.62109375 66.66796875 C-67.57348928 65.7552628 -62.50330091 64.64158443 -57 62 C-56.030625 61.7525 -55.06125 61.505 -54.0625 61.25 C-46.16586054 58.02688185 -42.03849492 52.07698985 -38.32421875 44.6484375 C-37 42 -37 42 -35.38671875 39.3125 C-33.93841428 37.05991232 -33.93841428 37.05991232 -33.125 34.625 C-32.11131523 32.25973553 -31.1133414 30.75914975 -29.5625 28.75 C-26.6389407 24.83173857 -25.30277321 20.67091858 -24 16 C-24.99 16.495 -24.99 16.495 -26 17 C-32.78016019 17.40775789 -39.71151387 17.80974912 -46 15 C-50 10.8974359 -50 10.8974359 -50 8 C-44.16804311 2.60911548 -39.37003505 2.26012423 -31.625 2.25 C-29.63796023 2.21700956 -27.65097126 2.18073756 -25.6640625 2.140625 C-24.79217285 2.13579102 -23.9202832 2.13095703 -23.02197266 2.12597656 C-21.00350769 2.22409709 -21.00350769 2.22409709 -20 1 C-13.05384755 -0.81096118 -7.0638768 -1.15801259 0 0 Z M-22 13 C-22.99 14.485 -22.99 14.485 -24 16 C-23.01 16 -22.02 16 -21 16 C-21.33 15.01 -21.66 14.02 -22 13 Z " fill="#000000" transform="translate(295,25)"/>
<path d="M0 0 C4.30222975 0.86412307 6.26455302 2.50470664 9 6 C9.64073066 10.05796087 9.66853286 12.03434143 7.3125 15.4375 C4.59999199 17.27027568 3.20957777 17.43372673 0 17 C-0.33 16.67 -0.66 16.34 -1 16 C-0.909084 13.29891496 -0.76259234 10.63069689 -0.5625 7.9375 C-0.51029297 7.17888672 -0.45808594 6.42027344 -0.40429688 5.63867188 C-0.27424165 3.75878278 -0.13771962 1.87934315 0 0 Z " fill="#000000" transform="translate(552,49)"/>
<path d="M0 0 C3.86292072 0.36194317 6.89904299 1.78750235 10.3125 3.5625 C11.19550781 4.01753906 12.07851562 4.47257812 12.98828125 4.94140625 C13.98408203 5.46541016 13.98408203 5.46541016 15 6 C15.29296875 12.0546875 15.29296875 12.0546875 15 14 C14.01 14.66 13.02 15.32 12 16 C11.46375 17.010625 10.9275 18.02125 10.375 19.0625 C7.59554083 24.14035809 3.61248717 28.52197569 -1 32 C-4.2890625 32.7578125 -4.2890625 32.7578125 -7 33 C-6.67 31.35 -6.34 29.7 -6 28 C-5.01 28 -4.02 28 -3 28 C-2.95101562 27.38511719 -2.90203125 26.77023438 -2.8515625 26.13671875 C-2.77679688 25.32847656 -2.70203125 24.52023438 -2.625 23.6875 C-2.55539063 22.88699219 -2.48578125 22.08648437 -2.4140625 21.26171875 C-2 19 -2 19 0 16 C0.41679297 13.54230847 0.41679297 13.54230847 0 11 C-0.515625 10.34 -1.03125 9.68 -1.5625 9 C-3 7 -3 7 -2.8125 4.375 C-2 2 -2 2 0 0 Z " fill="#000000" transform="translate(122,64)"/>
<path d="M0 0 C1.9375 1.1875 1.9375 1.1875 3 3 C3.5 6 3.5 6 3 9 C-2.09896503 13.22485674 -7.63586946 13.12478687 -14 13 C-13.319375 14.5159375 -13.319375 14.5159375 -12.625 16.0625 C-10.30002242 21.52785015 -8.19885477 26.99141075 -9 33 C-11.07283793 36.06780014 -12.60028203 36.87209025 -16.125 38 C-21.38685519 38 -25.4662084 36.65719612 -30 34 C-32.30728455 31.68091348 -34 29.39398172 -34 26 C-29.38 26 -24.76 26 -20 26 C-20.33 22.7 -20.66 19.4 -21 16 C-27.59612849 17.06964246 -31.47594364 18.20221126 -37 22 C-41.7242934 23.78859031 -45.93107722 25 -51 25 C-51.66 24.67 -52.32 24.34 -53 24 C-53 23.34 -53 22.68 -53 22 C-54.32 22 -55.64 22 -57 22 C-57.66 20.35 -58.32 18.7 -59 17 C-52.30499382 11.25017116 -46.48119388 9.09208052 -37.8203125 7.68359375 C-34.09309616 7.01665831 -30.65899759 6.04740815 -27.0625 4.875 C-23.5280732 3.72717757 -20.26386359 2.78099776 -16.5625 2.4375 C-12.95491735 2.20995953 -12.95491735 2.20995953 -9.9375 0.375 C-6.14371417 -1.40081465 -4.00478997 -1.05786905 0 0 Z " fill="#000000" transform="translate(605,79)"/>
<path d="M0 0 C3.74044238 0.28914604 6.34881855 0.8191719 9.5625 2.80859375 C11.54973927 6.24109795 10.91061023 8.43016859 9.9375 12.18359375 C7.9375 14.18359375 7.9375 14.18359375 5 14.49609375 C1.9375 14.18359375 1.9375 14.18359375 0.125 13.05859375 C-1.48478269 10.5168316 -1.73359009 8.14378295 -2.0625 5.18359375 C-3.0525 4.85359375 -4.0425 4.52359375 -5.0625 4.18359375 C-3.85482082 1.52669956 -2.9973369 0.2668084 0 0 Z " fill="#000000" transform="translate(378.0625,90.81640625)"/>
<path d="M0 0 C6.93740398 0.75406565 11.13009192 5.28461261 15.58984375 10.21484375 C17.19445663 12.83392313 17.30355831 14.28851553 16.875 17.3125 C15.46667174 19.63121189 13.73865442 21.3090715 11.875 23.3125 C8.50037285 22.76526317 6.79265 22.2576 3.875 20.3125 C2.76500878 18.49840988 1.72954748 16.6377209 0.75 14.75 C-0.87549855 11.31318643 -0.87549855 11.31318643 -3.125 8.3125 C-3.25 4.8125 -3.25 4.8125 -3.125 1.3125 C-2.125 0.3125 -2.125 0.3125 0 0 Z " fill="#000000" transform="translate(495.125,92.6875)"/>
</svg>
